<svg width="138" height="133" viewBox="0 0 138 133" fill="none" xmlns="http://www.w3.org/2000/svg">
<path d="M124.391 53.3428L69.4624 79.2143L14.5342 53.3428L69.4624 30.9277L124.391 53.3428Z" fill="white" stroke="#01B763" stroke-width="3" stroke-linejoin="round"/>
<path d="M134.22 74.8161L124.391 79.8176L98.8714 92.7795L82.1564 101.264L70.6188 81.2316L69.4624 79.2153L124.391 53.3438L134.22 74.8161Z" fill="white" stroke="#01B763" stroke-width="3" stroke-linejoin="round"/>
<path d="M69.1999 79.2153L67.9647 81.3887H67.9384L56.4797 101.264L39.8961 92.8319L14.5345 79.9485L4.44238 74.8161L14.2717 53.3438L14.5345 53.4747L69.1999 79.2153Z" fill="white" stroke="#01B763" stroke-width="3" stroke-linejoin="round"/>
<path d="M70.6188 81.2316L69.4625 80.7603L67.9644 81.3887L69.1996 79.2153L14.5342 53.4747V53.3438L69.4625 79.2153L70.6188 81.2316Z" fill="white" stroke="#01B763" stroke-width="3" stroke-linejoin="round"/>
<path d="M124.391 79.8164V103.2L69.4624 129.072L14.5342 103.2V79.9473L39.8958 92.8307L56.4794 101.263L67.9381 81.3876H67.9644L69.4624 80.7591L70.6188 81.2304L82.1564 101.263L98.8714 92.7784L124.391 79.8164Z" fill="white" stroke="#01B763" stroke-width="3" stroke-linejoin="round"/>
<circle cx="69.5" cy="37" r="25.5" fill="white" stroke="#01B763" stroke-width="3"/>
<path d="M68.0102 39.188H70.9862L71.6372 27.749L71.7612 23.44H67.2042L67.3282 27.749L68.0102 39.188ZM69.4672 47.434C71.1102 47.434 72.3192 46.163 72.3192 44.458C72.3192 42.753 71.1102 41.513 69.4672 41.513C67.8552 41.513 66.6462 42.753 66.6462 44.458C66.6462 46.163 67.8552 47.434 69.4672 47.434Z" fill="#01B763"/>
<path d="M69 94V122.5" stroke="#01B763" stroke-width="3" stroke-linecap="round"/>
</svg>
