<svg width="27" height="24" viewBox="0 0 27 24" fill="none" xmlns="http://www.w3.org/2000/svg">
<path fill-rule="evenodd" clip-rule="evenodd" d="M24.8116 15.9532L17.0664 3.97762C16.2889 2.7584 14.8396 2.00166 13.2723 2C11.7048 1.99834 10.255 2.75196 9.46775 3.97767L1.7197 15.9576C0.916286 17.1795 0.89811 18.7105 1.67631 19.9592C2.45516 21.2089 3.91349 21.9866 5.49975 21.9983L21.0202 21.9983C22.6229 21.9842 24.0785 21.2089 24.8572 19.9603C25.635 18.7132 25.6176 17.1856 24.8116 15.9532ZM3.62429 16.9737L11.3781 4.98491C11.7708 4.37354 12.4909 3.99918 13.2697 4C14.0483 4.00083 14.7683 4.37673 15.1544 4.98222L22.9057 16.9672C23.312 17.5885 23.3207 18.3533 22.9313 18.9777C22.5413 19.603 21.8122 19.9913 21.0094 19.9984L5.50875 19.9983C4.7231 19.9925 3.99262 19.6029 3.60257 18.9771C3.21295 18.3519 3.22205 17.5855 3.62429 16.9737ZM13.2677 17.9983C13.8785 17.9983 14.3737 17.5506 14.3737 16.9983C14.3737 16.4461 13.8785 15.9983 13.2677 15.9983C12.6569 15.9983 12.1617 16.4461 12.1617 16.9983C12.1617 17.5506 12.6569 17.9983 13.2677 17.9983ZM14.3769 7.99835H12.165V14.9983H14.3769V7.99835Z" fill="#F5222D"/>
</svg>
