<svg width="33" height="32" viewBox="0 0 33 32" fill="none" xmlns="http://www.w3.org/2000/svg">
<path fill-rule="evenodd" clip-rule="evenodd" d="M22.3426 9.33366L24.7991 14.2466L28.5 16.7139V21.3337H26.9391C26.39 19.7801 24.9083 18.667 23.1667 18.667C21.4251 18.667 19.9434 19.7801 19.3943 21.3337H13.6057C13.0566 19.7801 11.575 18.667 9.83334 18.667C8.09172 18.667 6.61007 19.7801 6.06095 21.3337H4.50001V9.33366H22.3426ZM28.5 24.0003H26.9391C26.39 25.5539 24.9083 26.667 23.1667 26.667C21.4251 26.667 19.9434 25.5539 19.3943 24.0003H13.6057C13.0566 25.5539 11.575 26.667 9.83334 26.667C8.09172 26.667 6.61007 25.5539 6.06095 24.0003H4.50001C3.02725 24.0003 1.83334 22.8064 1.83334 21.3337V9.33366C1.83334 7.8609 3.02725 6.66699 4.50001 6.66699H22.3426C23.3527 6.66699 24.2761 7.23767 24.7278 8.14109L26.8676 12.4207L31.1667 15.2867V21.3337C31.1667 22.8064 29.9728 24.0003 28.5 24.0003ZM11.1667 22.667C11.1667 23.4034 10.5697 24.0003 9.83334 24.0003C9.09696 24.0003 8.50001 23.4034 8.50001 22.667C8.50001 21.9306 9.09696 21.3337 9.83334 21.3337C10.5697 21.3337 11.1667 21.9306 11.1667 22.667ZM24.5 22.667C24.5 23.4034 23.9031 24.0003 23.1667 24.0003C22.4303 24.0003 21.8333 23.4034 21.8333 22.667C21.8333 21.9306 22.4303 21.3337 23.1667 21.3337C23.9031 21.3337 24.5 21.9306 24.5 22.667Z" fill="#01B763"/>
</svg>
