<svg width="32" height="32" viewBox="0 0 32 32" fill="none" xmlns="http://www.w3.org/2000/svg">
<path fill-rule="evenodd" clip-rule="evenodd" d="M2.66669 26.667C2.66669 28.1397 3.86059 29.3337 5.33335 29.3337H23.219L29.3334 23.2193V5.33366C29.3334 3.8609 28.1394 2.66699 26.6667 2.66699H5.33335C3.86059 2.66699 2.66669 3.8609 2.66669 5.33366V26.667ZM5.33335 5.33366H26.6667V20.0003H22.6667C21.1939 20.0003 20 21.1942 20 22.667V26.667H5.33335V5.33366ZM22.6667 22.667H26.1144L22.6667 26.1147V22.667ZM9.33335 20.0003V22.667H17.3334V20.0003H9.33335ZM9.33335 17.3337V14.667H22.6667V17.3337H9.33335ZM9.33335 9.33366V12.0003H22.6667V9.33366H9.33335Z" fill="#01B763"/>
</svg>
