<svg width="101" height="77" viewBox="0 0 101 77" fill="none" xmlns="http://www.w3.org/2000/svg">
<path d="M99.1643 11.8613H2.24402V57.1431H99.1643V11.8613Z" fill="white"/>
<path d="M100.5 58.4615H0.908325V10.541H100.5V58.4615ZM3.57978 55.8227H97.8286V13.1798H3.57978V55.8227Z" fill="#01B763"/>
<path d="M86.2477 17.6797H15.1471C13.8044 17.6797 12.7161 18.7548 12.7161 20.081V48.9098C12.7161 50.236 13.8044 51.3111 15.1471 51.3111H86.2477C87.5904 51.3111 88.6788 50.236 88.6788 48.9098V20.081C88.6788 18.7548 87.5904 17.6797 86.2477 17.6797Z" fill="white"/>
<path d="M86.2478 52.6433H15.1471C13.0634 52.6433 11.3804 50.9676 11.3804 48.9226V20.0937C11.3804 18.0355 13.0767 16.373 15.1471 16.373H86.2478C88.3315 16.373 90.0145 18.0487 90.0145 20.0937V48.9226C90.0145 50.9808 88.3182 52.6433 86.2478 52.6433ZM15.1471 19.0118C14.546 19.0118 14.0518 19.5 14.0518 20.0937V48.9226C14.0518 49.5163 14.546 50.0045 15.1471 50.0045H86.2478C86.8489 50.0045 87.3431 49.5163 87.3431 48.9226V20.0937C87.3431 19.5 86.8489 19.0118 86.2478 19.0118H15.1471Z" fill="#01B763"/>
<path d="M50.0496 46.1785C43.5313 46.1785 38.2418 40.9405 38.2418 34.5151C38.2418 28.0896 43.5446 22.8516 50.0496 22.8516C56.5546 22.8516 61.8574 28.0896 61.8574 34.5151C61.8574 40.9405 56.5546 46.1785 50.0496 46.1785ZM50.0496 25.4772C45.0139 25.4772 40.9133 29.5277 40.9133 34.5019C40.9133 39.476 45.0139 43.5265 50.0496 43.5265C55.0853 43.5265 59.186 39.476 59.186 34.5019C59.186 29.5277 55.0853 25.4772 50.0496 25.4772Z" fill="#01B763"/>
<path d="M33.0191 35.8224H19.9157C19.181 35.8224 18.58 35.2287 18.58 34.503C18.58 33.7773 19.181 33.1836 19.9157 33.1836H33.0191C33.7538 33.1836 34.3549 33.7773 34.3549 34.503C34.3549 35.2287 33.7538 35.8224 33.0191 35.8224Z" fill="#01B763"/>
<path d="M80.1702 35.8224H67.0801C66.3455 35.8224 65.7444 35.2287 65.7444 34.503C65.7444 33.7773 66.3455 33.1836 67.0801 33.1836H80.1702C80.9049 33.1836 81.506 33.7773 81.506 34.503C81.506 35.2287 80.9049 35.8224 80.1702 35.8224Z" fill="#01B763"/>
</svg>
