<svg width="24" height="24" viewBox="0 0 24 24" fill="none" xmlns="http://www.w3.org/2000/svg">
<path fill-rule="evenodd" clip-rule="evenodd" d="M11.5343 3.40412C11.5281 3.40775 11.5218 3.41131 11.5155 3.41482L4 7.58855V15.8242C4.00019 16.0023 4.04795 16.1771 4.13836 16.3306C4.22881 16.4842 4.35868 16.6108 4.5145 16.6974L11.5145 20.5874C11.663 20.6698 11.8301 20.7131 12 20.7131C12.1699 20.7131 12.337 20.6698 12.4855 20.5874L19.4853 16.6975C19.6412 16.6109 19.7713 16.4841 19.8618 16.3304C19.9522 16.1768 19.9999 16.0018 20 15.8236C20 15.8235 20 15.8237 20 15.8236V7.58859L12.4855 3.41483C12.337 3.33234 12.1699 3.28906 12 3.28906C11.8376 3.28906 11.6778 3.3286 11.5343 3.40412ZM10.5164 1.68197C10.5253 1.67664 10.5344 1.67143 10.5435 1.66635C10.9891 1.41891 11.4903 1.28906 12 1.28906C12.5097 1.28906 13.0109 1.41891 13.4565 1.66635L20.9716 5.84038C21.2832 6.01367 21.5432 6.26735 21.724 6.57468C21.9047 6.882 22 7.23205 22 7.58859C22 7.58857 22 7.5886 22 7.58859V15.8236C21.9999 16.3586 21.8567 16.884 21.5853 17.345C21.3139 17.806 20.9242 18.1861 20.4565 18.4458L13.4567 22.3357C13.0112 22.5831 12.5097 22.7131 12 22.7131C11.4903 22.7131 10.9891 22.5833 10.5435 22.3358L3.5435 18.4458C3.07604 18.1862 2.68645 17.8064 2.41507 17.3457C2.1437 16.8849 2.00039 16.36 2 15.8253L2 7.58863C2 7.58862 2 7.58864 2 7.58863C1.99999 7.2321 2.09529 6.882 2.27603 6.57468C2.45677 6.26734 2.71639 6.01391 3.028 5.84063L10.5164 1.68197Z" fill="#262626"/>
<path fill-rule="evenodd" clip-rule="evenodd" d="M11 12.5895L2.51434 7.87527L3.48563 6.12695L12 10.8572L20.5143 6.12695L21.4856 7.87527L13 12.5895V22.0011H11V12.5895Z" fill="#262626"/>
<path fill-rule="evenodd" clip-rule="evenodd" d="M17.3742 4.01454C17.6424 4.49732 17.4684 5.10613 16.9856 5.37434L7.98564 10.3743C7.50286 10.6426 6.89405 10.4686 6.62584 9.98583C6.35763 9.50304 6.53157 8.89424 7.01435 8.62602L16.0144 3.62602C16.4971 3.35781 17.1059 3.53176 17.3742 4.01454ZM5.1265 11.8414C5.39537 11.3589 6.00441 11.1858 6.48683 11.4547L9.48683 13.1267C9.96925 13.3956 10.1424 14.0046 9.8735 14.487C9.60463 14.9694 8.99559 15.1425 8.51317 14.8737L5.51317 13.2017C5.03075 12.9328 4.85763 12.3238 5.1265 11.8414Z" fill="#262626"/>
</svg>
