<svg width="18" height="18" viewBox="0 0 18 18" fill="none" xmlns="http://www.w3.org/2000/svg">
<path fill-rule="evenodd" clip-rule="evenodd" d="M8.65073 2.55309C8.64607 2.55581 8.64137 2.55849 8.63663 2.56112L3 5.69141V11.8681C3.00014 12.0017 3.03597 12.1329 3.10377 12.248C3.17161 12.3632 3.26901 12.4581 3.38587 12.523L8.63588 15.4405C8.74727 15.5024 8.87258 15.5348 9 15.5348C9.12742 15.5348 9.25273 15.5024 9.36412 15.4405L14.6139 12.5231C14.7309 12.4582 14.8285 12.3631 14.8963 12.2478C14.9641 12.1326 14.9999 12.0014 15 11.8677C15 11.8676 15 11.8678 15 11.8677V5.69144L9.36412 2.56112C9.25273 2.49926 9.12742 2.4668 9 2.4668C8.87822 2.4668 8.75835 2.49645 8.65073 2.55309ZM7.88728 1.26148C7.89398 1.25748 7.90076 1.25358 7.90763 1.24976C8.2418 1.06418 8.61775 0.966797 9 0.966797C9.38225 0.966797 9.7582 1.06418 10.0924 1.24976L15.7287 4.38029C15.9624 4.51025 16.1574 4.70051 16.293 4.93101C16.4285 5.1615 16.5 5.42404 16.5 5.69144C16.5 5.69143 16.5 5.69145 16.5 5.69144V11.8677C16.4999 12.2689 16.3925 12.663 16.189 13.0088C15.9854 13.3545 15.6931 13.6396 15.3424 13.8344L10.0926 16.7518C9.75838 16.9373 9.38225 17.0348 9 17.0348C8.61775 17.0348 8.2418 16.9375 7.90763 16.7519L2.65763 13.8344C2.30703 13.6397 2.01484 13.3548 1.8113 13.0092C1.60777 12.6637 1.5003 12.27 1.5 11.869L1.5 5.69147C1.5 5.69146 1.5 5.69148 1.5 5.69147C1.49999 5.42407 1.57147 5.1615 1.70702 4.93101C1.84258 4.70051 2.03729 4.51043 2.271 4.38047L7.88728 1.26148Z" fill="#262626"/>
<path fill-rule="evenodd" clip-rule="evenodd" d="M8.24997 9.44262L1.88574 5.90694L2.61421 4.5957L8.99997 8.14335L15.3857 4.5957L16.1142 5.90694L9.74997 9.44262V16.5013H8.24997V9.44262Z" fill="#262626"/>
<path fill-rule="evenodd" clip-rule="evenodd" d="M13.0306 3.0109C13.2318 3.37299 13.1013 3.82959 12.7392 4.03075L5.98925 7.78075C5.62716 7.98191 5.17056 7.85146 4.9694 7.48937C4.76824 7.12728 4.89869 6.67068 5.26078 6.46952L12.0108 2.71952C12.3729 2.51836 12.8295 2.64882 13.0306 3.0109ZM3.84489 8.88101C4.04654 8.5192 4.50332 8.38936 4.86514 8.59101L7.11514 9.84501C7.47695 10.0467 7.60679 10.5034 7.40514 10.8653C7.20349 11.2271 6.74671 11.3569 6.38489 11.1553L4.13489 9.90126C3.77308 9.69961 3.64324 9.24283 3.84489 8.88101Z" fill="#262626"/>
</svg>
