<svg width="335" height="100" viewBox="0 0 335 100" fill="none" xmlns="http://www.w3.org/2000/svg">
<path d="M0 16C0 7.16345 7.16344 0 16 0H319C327.837 0 335 7.16344 335 16V100H0V16Z" fill="#01B763"/>
<g clip-path="url(#clip0_0_1)">
<rect width="335" height="100" rx="16" fill="#01B763"/>
<line x1="315.866" y1="-7.5" x2="250.866" y2="105.083" stroke="white" stroke-opacity="0.25" stroke-width="2"/>
<line x1="323.866" y1="-7.5" x2="258.866" y2="105.083" stroke="white" stroke-opacity="0.25" stroke-width="2"/>
<line x1="331.866" y1="-7.5" x2="266.866" y2="105.083" stroke="white" stroke-opacity="0.25" stroke-width="2"/>
<line x1="339.866" y1="-7.5" x2="274.866" y2="105.083" stroke="white" stroke-opacity="0.25" stroke-width="2"/>
<line x1="347.866" y1="-7.5" x2="282.866" y2="105.083" stroke="white" stroke-opacity="0.25" stroke-width="2"/>
<line x1="355.866" y1="-7.5" x2="290.866" y2="105.083" stroke="white" stroke-opacity="0.25" stroke-width="2"/>
<line x1="363.866" y1="-7.5" x2="298.866" y2="105.083" stroke="white" stroke-opacity="0.25" stroke-width="2"/>
<line x1="371.866" y1="-7.5" x2="306.866" y2="105.083" stroke="white" stroke-opacity="0.25" stroke-width="2"/>
<line x1="379.866" y1="-7.5" x2="314.866" y2="105.083" stroke="white" stroke-opacity="0.25" stroke-width="2"/>
<line x1="387.866" y1="-7.5" x2="322.866" y2="105.083" stroke="white" stroke-opacity="0.25" stroke-width="2"/>
<line x1="395.866" y1="-7.5" x2="330.866" y2="105.083" stroke="white" stroke-opacity="0.25" stroke-width="2"/>
</g>
<defs>
<clipPath id="clip0_0_1">
<rect width="335" height="100" fill="white"/>
</clipPath>
</defs>
</svg>
